<svg width="80" height="80" viewBox="0 0 80 80" fill="none" xmlns="http://www.w3.org/2000/svg">
<rect width="80" height="80" rx="24" fill="url(#paint0_linear)"/>
<path d="M44.4764 24.9734C44.4255 24.9746 44.3747 24.9783 44.3241 24.9846C43.9555 25.0296 43.6167 25.2095 43.3732 25.4898C43.1297 25.7701 42.9988 26.1309 43.0057 26.5021V53.4991C43.0077 53.8041 43.1026 54.1012 43.2778 54.3508C43.453 54.6005 43.7001 54.7909 43.9862 54.8965C44.2723 55.0022 44.5838 55.0183 44.8792 54.9424C45.1746 54.8665 45.4398 54.7022 45.6395 54.4718L54.6425 43.9747C54.7704 43.8249 54.8676 43.6512 54.9284 43.4638C54.9893 43.2764 55.0126 43.0789 54.9971 42.8825C54.9816 42.6861 54.9276 42.4945 54.8381 42.319C54.7486 42.1434 54.6254 41.9874 54.4755 41.8595C54.3257 41.7315 54.1521 41.6343 53.9647 41.5735C53.7773 41.5126 53.5797 41.4893 53.3833 41.5048C53.1869 41.5203 52.9954 41.5745 52.8199 41.664C52.6443 41.7535 52.4882 41.8766 52.3602 42.0264L45.994 49.4444V26.5021C45.9976 26.3015 45.9608 26.102 45.8859 25.9158C45.811 25.7296 45.6995 25.5604 45.5579 25.418C45.4164 25.2757 45.2478 25.1632 45.062 25.0872C44.8763 25.0112 44.6771 24.9733 44.4764 24.9756L44.4764 24.9734ZM35.453 25.0073C35.2441 25.0131 35.0388 25.0626 34.8501 25.1525C34.6614 25.2423 34.4935 25.3705 34.3573 25.5289L25.3661 36.026C25.2202 36.1721 25.1061 36.3468 25.0308 36.5391C24.9556 36.7315 24.9209 36.9373 24.9289 37.1436C24.9368 37.35 24.9873 37.5525 25.0772 37.7385C25.167 37.9244 25.2943 38.0896 25.451 38.2241C25.6077 38.3586 25.7905 38.4594 25.9879 38.52C26.1854 38.5805 26.3932 38.5997 26.5983 38.5762C26.8035 38.5527 27.0016 38.487 27.1803 38.3835C27.3589 38.2799 27.5143 38.1407 27.6366 37.9743L34.0028 30.5562V53.4987C33.9984 53.6985 34.0339 53.8971 34.1073 54.083C34.1807 54.2689 34.2905 54.4382 34.4302 54.5811C34.5699 54.724 34.7368 54.8374 34.921 54.9149C35.1052 54.9923 35.303 55.0323 35.5028 55.0323C35.7026 55.0323 35.9005 54.9923 36.0847 54.9149C36.2689 54.8374 36.4357 54.724 36.5754 54.5811C36.7152 54.4382 36.8249 54.2689 36.8983 54.083C36.9717 53.8971 37.0072 53.6985 37.0028 53.4987V26.5016C37.0021 26.3009 36.9611 26.1023 36.8823 25.9177C36.8035 25.7331 36.6884 25.566 36.5439 25.4267C36.3993 25.2874 36.2283 25.1785 36.041 25.1064C35.8536 25.0344 35.6536 25.0008 35.453 25.0075V25.0073Z" fill="#F66F4D"/>
<defs>
<linearGradient id="paint0_linear" x1="40" y1="0" x2="40" y2="80" gradientUnits="userSpaceOnUse">
<stop stop-color="#F66F4D" stop-opacity="0.15"/>
<stop offset="1" stop-color="#F66F4D" stop-opacity="0.06"/>
</linearGradient>
</defs>
</svg>
