<svg width="160" height="89" viewBox="0 0 160 89" fill="none" xmlns="http://www.w3.org/2000/svg">
<path d="M20.134 55.0479L4 87H160V39.8547C160 34.8841 155.971 30.8547 151 30.8547H137.525C133.806 30.8547 130.469 33.1429 129.129 36.6129L121.407 56.6142C118.547 64.0214 108.194 64.3655 104.849 57.1646L86.5362 17.7503C83.296 10.7763 73.3675 10.8155 70.1824 17.8148L53.2922 54.9317C50.5667 60.9211 42.5449 62.0562 38.2646 57.0581L35.0037 53.2504C30.8258 48.3719 23.0291 49.3144 20.134 55.0479Z" fill="url(#paint0_linear)" fill-opacity="0.15"/>
<path d="M4 87L20.134 55.0479C23.0291 49.3143 30.8258 48.3719 35.0037 53.2504L38.2646 57.0581C42.5449 62.0562 50.5667 60.9211 53.2922 54.9317L70.1824 17.8148C73.3675 10.8155 83.296 10.7763 86.5362 17.7503L104.849 57.1646C108.194 64.3655 118.547 64.0214 121.407 56.6142L129.129 36.6129C130.469 33.1429 133.806 30.8547 137.525 30.8547H160" stroke="#16B455" stroke-width="7"/>
<defs>
<linearGradient id="paint0_linear" x1="82" y1="0" x2="82" y2="87" gradientUnits="userSpaceOnUse">
<stop stop-color="#16B455"/>
<stop offset="1" stop-color="#16B455" stop-opacity="0"/>
</linearGradient>
</defs>
</svg>
