<svg width="18" height="18" viewBox="0 0 18 18" fill="none" xmlns="http://www.w3.org/2000/svg">
<path d="M14.8334 3.16675H14.0001V1.50008C14.0001 1.27907 13.9123 1.06711 13.756 0.910826C13.5997 0.754545 13.3878 0.666748 13.1667 0.666748C12.9457 0.666748 12.7338 0.754545 12.5775 0.910826C12.4212 1.06711 12.3334 1.27907 12.3334 1.50008V3.16675H5.66675V1.50008C5.66675 1.27907 5.57895 1.06711 5.42267 0.910826C5.26639 0.754545 5.05443 0.666748 4.83342 0.666748C4.6124 0.666748 4.40044 0.754545 4.24416 0.910826C4.08788 1.06711 4.00008 1.27907 4.00008 1.50008V3.16675H3.16675C2.50371 3.16675 1.86782 3.43014 1.39898 3.89898C0.93014 4.36782 0.666748 5.00371 0.666748 5.66675V6.50008H17.3334V5.66675C17.3334 5.00371 17.07 4.36782 16.6012 3.89898C16.1323 3.43014 15.4965 3.16675 14.8334 3.16675Z" fill="#F66F4D"/>
<path d="M0.666748 14.8334C0.666748 15.4964 0.93014 16.1323 1.39898 16.6012C1.86782 17.07 2.50371 17.3334 3.16675 17.3334H14.8334C15.4965 17.3334 16.1323 17.07 16.6012 16.6012C17.07 16.1323 17.3334 15.4964 17.3334 14.8334V8.16675H0.666748V14.8334Z" fill="#F66F4D"/>
</svg>
