<svg width="80" height="80" viewBox="0 0 80 80" fill="none" xmlns="http://www.w3.org/2000/svg">
<rect width="80" height="80" rx="24" fill="url(#paint0_linear)"/>
<path d="M56.5 50.5C56.5 50.8978 56.342 51.2793 56.0607 51.5606C55.7794 51.8419 55.3978 52 55 52H37C36.6022 52 36.2206 51.8419 35.9393 51.5606C35.658 51.2793 35.5 50.8978 35.5 50.5C35.5 48.113 36.4482 45.8238 38.136 44.136C39.8239 42.4482 42.1131 41.5 44.5 41.5H47.5C49.8869 41.5 52.1761 42.4482 53.864 44.136C55.5518 45.8238 56.5 48.113 56.5 50.5ZM46 28C44.8133 28 43.6533 28.3519 42.6666 29.0112C41.6799 29.6705 40.9108 30.6075 40.4567 31.7039C40.0026 32.8003 39.8838 34.0066 40.1153 35.1705C40.3468 36.3344 40.9182 37.4035 41.7574 38.2426C42.5965 39.0817 43.6656 39.6532 44.8295 39.8847C45.9933 40.1162 47.1997 39.9974 48.2961 39.5433C49.3925 39.0891 50.3295 38.3201 50.9888 37.3334C51.6481 36.3467 52 35.1867 52 34C52 32.4087 51.3679 30.8826 50.2426 29.7574C49.1174 28.6321 47.5913 28 46 28ZM32.5 28C31.3133 28 30.1533 28.3519 29.1666 29.0112C28.1799 29.6705 27.4108 30.6075 26.9567 31.7039C26.5026 32.8003 26.3838 34.0066 26.6153 35.1705C26.8468 36.3344 27.4182 37.4035 28.2574 38.2426C29.0965 39.0817 30.1656 39.6532 31.3295 39.8847C32.4933 40.1162 33.6997 39.9974 34.7961 39.5433C35.8925 39.0891 36.8295 38.3201 37.4888 37.3334C38.1481 36.3467 38.5 35.1867 38.5 34C38.5 32.4087 37.8679 30.8826 36.7426 29.7574C35.6174 28.6321 34.0913 28 32.5 28ZM32.5 50.5C32.4978 48.9244 32.8082 47.364 33.4133 45.9093C34.0183 44.4545 34.9061 43.1342 36.025 42.025C35.1093 41.6793 34.1388 41.5014 33.16 41.5H31.84C29.6293 41.504 27.5103 42.3839 25.9471 43.9471C24.3839 45.5103 23.504 47.6293 23.5 49.84V50.5C23.5 50.8978 23.658 51.2793 23.9393 51.5606C24.2206 51.8419 24.6022 52 25 52H32.77C32.5954 51.519 32.5041 51.0117 32.5 50.5Z" fill="#F66F4D"/>
<defs>
<linearGradient id="paint0_linear" x1="40" y1="0" x2="40" y2="80" gradientUnits="userSpaceOnUse">
<stop stop-color="#F66F4D" stop-opacity="0.15"/>
<stop offset="1" stop-color="#F66F4D" stop-opacity="0.06"/>
</linearGradient>
</defs>
</svg>
