<svg width="537" height="283" viewBox="0 0 537 283" fill="none" xmlns="http://www.w3.org/2000/svg">
<path d="M71.1859 167.217H0.5V282.217H535V1.7168L477.738 114.592C468.138 133.517 442.128 136.059 429.044 119.351L411.33 96.7311C398.725 80.6346 373.868 82.2848 363.502 99.9065L284.371 234.421C279.16 243.278 269.651 248.717 259.375 248.717H181.437C174.096 248.717 167.029 245.933 161.66 240.927L90.9629 175.007C85.594 170.001 78.5265 167.217 71.1859 167.217Z" fill="url(#paint0_linear)"/>
<path d="M0.5 167.217H71.1859C78.5265 167.217 85.594 170.001 90.9629 175.007L161.66 240.927C167.029 245.933 174.096 248.717 181.437 248.717H259.375C269.651 248.717 279.16 243.278 284.371 234.421L363.502 99.9065C373.868 82.2848 398.725 80.6346 411.33 96.7311L429.044 119.351C442.128 136.059 468.138 133.517 477.738 114.592L535 1.7168" stroke="#FF4062" stroke-width="4"/>
<defs>
<linearGradient id="paint0_linear" x1="267.75" y1="1.7168" x2="267.75" y2="282.217" gradientUnits="userSpaceOnUse">
<stop stop-color="#FF4062" stop-opacity="0.37"/>
<stop offset="1" stop-color="#FF4062" stop-opacity="0"/>
</linearGradient>
</defs>
</svg>
