<svg width="533" height="285" viewBox="0 0 533 285" fill="none" xmlns="http://www.w3.org/2000/svg">
<path d="M63.2204 134.37L9.44686 194.289C4.67122 199.61 2.02979 206.508 2.02979 213.658V284.717H530.703V248.221C530.703 239.883 527.113 231.948 520.851 226.442L480.766 191.2C468.611 180.512 450.059 181.844 439.555 194.158L417.178 220.39C403.16 236.822 376.743 232.713 368.378 212.8L302.746 56.5567C293.277 34.0147 261.876 32.5877 250.401 54.178L190.387 167.1C181.109 184.557 157.466 187.817 143.81 173.523L105.772 133.707C94.1027 121.492 74.5038 121.798 63.2204 134.37Z" fill="url(#paint0_linear)"/>
<path d="M2.02979 202.554L63.2204 134.37C74.5038 121.798 94.1027 121.492 105.772 133.707L143.81 173.523C157.466 187.817 181.109 184.557 190.387 167.1L250.401 54.178C261.876 32.5877 293.277 34.0147 302.746 56.5567L368.378 212.8C376.743 232.713 403.16 236.822 417.178 220.39L439.555 194.158C450.059 181.844 468.611 180.512 480.766 191.2L530.703 235.103" stroke="#0968C0" stroke-width="4"/>
<defs>
<linearGradient id="paint0_linear" x1="266.366" y1="0.216797" x2="266.366" y2="284.717" gradientUnits="userSpaceOnUse">
<stop stop-color="#0968C0" stop-opacity="0.21"/>
<stop offset="1" stop-color="#0968C0" stop-opacity="0"/>
</linearGradient>
</defs>
</svg>
