<svg width="22" height="22" viewBox="0 0 22 22" fill="none" xmlns="http://www.w3.org/2000/svg">
<path d="M7.5 0H2.5C1.11929 0 0 1.11929 0 2.5V4.5C0 5.88071 1.11929 7 2.5 7H7.5C8.88071 7 10 5.88071 10 4.5V2.5C10 1.11929 8.88071 0 7.5 0Z" fill="#F66F4D"/>
<path d="M19.4999 15H14.4999C13.1192 15 11.9999 16.1193 11.9999 17.5V19.5C11.9999 20.8807 13.1192 22 14.4999 22H19.4999C20.8806 22 21.9999 20.8807 21.9999 19.5V17.5C21.9999 16.1193 20.8806 15 19.4999 15Z" fill="#F66F4D"/>
<path d="M7.5 8H2.5C1.11929 8 0 9.11929 0 10.5V19.5C0 20.8807 1.11929 22 2.5 22H7.5C8.88071 22 10 20.8807 10 19.5V10.5C10 9.11929 8.88071 8 7.5 8Z" fill="#F66F4D"/>
<path d="M19.4999 0H14.4999C13.1192 0 11.9999 1.11929 11.9999 2.5V11.5C11.9999 12.8807 13.1192 14 14.4999 14H19.4999C20.8806 14 21.9999 12.8807 21.9999 11.5V2.5C21.9999 1.11929 20.8806 0 19.4999 0Z" fill="#F66F4D"/>
</svg>
