<svg width="24" height="24" viewBox="0 0 24 24" fill="none" xmlns="http://www.w3.org/2000/svg">
<path d="M20.25 11.25H18.75V7.5C18.75 6.90326 18.5129 6.33097 18.091 5.90901C17.669 5.48705 17.0967 5.25 16.5 5.25H12.75V3.75C12.75 2.95435 12.4339 2.19129 11.8713 1.62868C11.3087 1.06607 10.5456 0.75 9.75 0.75C8.95435 0.75 8.19129 1.06607 7.62868 1.62868C7.06607 2.19129 6.75 2.95435 6.75 3.75V5.25H3C2.40326 5.25 1.83097 5.48705 1.40901 5.90901C0.987053 6.33097 0.75 6.90326 0.75 7.5V12C0.75 12.1989 0.829018 12.3897 0.96967 12.5303C1.11032 12.671 1.30109 12.75 1.5 12.75H3.75C4.14782 12.75 4.52936 12.908 4.81066 13.1893C5.09196 13.4706 5.25 13.8522 5.25 14.25C5.25 14.6478 5.09196 15.0294 4.81066 15.3107C4.52936 15.592 4.14782 15.75 3.75 15.75H1.5C1.30109 15.75 1.11032 15.829 0.96967 15.9697C0.829018 16.1103 0.75 16.3011 0.75 16.5V21C0.75 21.5967 0.987053 22.169 1.40901 22.591C1.83097 23.0129 2.40326 23.25 3 23.25H7.5C7.69891 23.25 7.88968 23.171 8.03033 23.0303C8.17098 22.8897 8.25 22.6989 8.25 22.5V20.25C8.25 19.8522 8.40804 19.4706 8.68934 19.1893C8.97064 18.908 9.35218 18.75 9.75 18.75C10.1478 18.75 10.5294 18.908 10.8107 19.1893C11.092 19.4706 11.25 19.8522 11.25 20.25V22.5C11.25 22.6989 11.329 22.8897 11.4697 23.0303C11.6103 23.171 11.8011 23.25 12 23.25H16.5C17.0967 23.25 17.669 23.0129 18.091 22.591C18.5129 22.169 18.75 21.5967 18.75 21V17.25H20.25C21.0456 17.25 21.8087 16.9339 22.3713 16.3713C22.9339 15.8087 23.25 15.0456 23.25 14.25C23.25 13.4544 22.9339 12.6913 22.3713 12.1287C21.8087 11.5661 21.0456 11.25 20.25 11.25Z" fill="#3B3741"/>
</svg>
