<svg width="24" height="24" viewBox="0 0 24 24" fill="none" xmlns="http://www.w3.org/2000/svg">
<path d="M17.2055 0C13.4561 0 10.4131 3.04152 10.4131 6.79238C10.4131 7.83836 10.6695 8.81957 11.0908 9.704L0.443405 20.3561C-0.146825 20.9464 -0.146825 21.9003 0.443405 22.4906L1.51061 23.5578C1.79292 23.8416 2.17622 24 2.57782 24C2.97777 24 3.36125 23.8416 3.64502 23.5578L6.01783 21.185L8.18682 23.3586C8.47059 23.6409 8.85384 23.7993 9.25403 23.7993C9.65567 23.7993 10.0389 23.6423 10.3212 23.3586L10.8557 22.8244C11.4459 22.2341 11.4459 21.2802 10.8557 20.6899L8.68361 18.5164L14.2938 12.9057C15.1814 13.3283 16.1595 13.5848 17.2069 13.5848C20.9592 13.5848 23.9993 10.5432 23.9993 6.79238C23.9993 3.04152 20.9594 0 17.2055 0ZM17.2055 10.5659C15.1239 10.5659 13.4319 8.87221 13.4319 6.79238C13.4319 4.71254 15.1239 3.01883 17.2055 3.01883C19.287 3.01883 20.979 4.71254 20.979 6.79238C20.979 8.87221 19.287 10.5659 17.2055 10.5659Z" fill="#3B3741"/>
</svg>
