<svg width="24" height="22" viewBox="0 0 24 22" fill="none" xmlns="http://www.w3.org/2000/svg">
<path d="M21.9075 7.88011C21.4699 7.81654 21.0522 7.65507 20.6856 7.40771C20.3191 7.16034 20.013 6.83347 19.7903 6.45143C19.5675 6.06939 19.4339 5.64202 19.3992 5.20116C19.3645 4.76029 19.4297 4.31728 19.59 3.90511C19.6919 3.63566 19.7069 3.34107 19.6329 3.06266C19.559 2.78424 19.3997 2.53596 19.1775 2.35261C18.1965 1.52886 17.0799 0.881745 15.8775 0.440113C15.6037 0.338401 15.3048 0.325692 15.0233 0.403799C14.7419 0.481906 14.4922 0.646843 14.31 0.875113C14.0357 1.22585 13.6852 1.50953 13.2849 1.70462C12.8847 1.89972 12.4453 2.00111 12 2.00111C11.5548 2.00111 11.1153 1.89972 10.7151 1.70462C10.3149 1.50953 9.96431 1.22585 9.69002 0.875113C9.50778 0.646843 9.25816 0.481906 8.9767 0.403799C8.69525 0.325692 8.39632 0.338401 8.12252 0.440113C7.01227 0.847845 5.97421 1.43017 5.04752 2.16511C4.81392 2.35004 4.64567 2.60489 4.56739 2.89235C4.48912 3.17981 4.50493 3.48479 4.61252 3.76261C4.78558 4.18568 4.85709 4.64342 4.8213 5.09911C4.7855 5.55481 4.64341 5.99577 4.40642 6.38663C4.16942 6.77749 3.84412 7.10736 3.45661 7.34979C3.0691 7.59222 2.63016 7.74046 2.17502 7.78261C1.87952 7.81421 1.60198 7.93984 1.38325 8.14102C1.16452 8.3422 1.01616 8.60829 0.960016 8.90011C0.820364 9.59139 0.750016 10.2949 0.750016 11.0001C0.74899 11.5905 0.796651 12.18 0.892516 12.7626C0.940227 13.0638 1.08583 13.3409 1.3068 13.551C1.52778 13.7611 1.81182 13.8926 2.11502 13.9251C2.58016 13.9688 3.02808 14.1232 3.42129 14.3755C3.8145 14.6278 4.14156 14.9706 4.37509 15.3752C4.60862 15.7799 4.74182 16.2346 4.76356 16.7012C4.78529 17.1679 4.69492 17.633 4.50002 18.0576C4.37246 18.3338 4.34082 18.6447 4.41012 18.9409C4.47942 19.2371 4.64568 19.5017 4.88252 19.6926C5.8576 20.5014 6.96345 21.138 8.15252 21.5751C8.30457 21.6278 8.46411 21.6556 8.62502 21.6576C8.84564 21.6571 9.06294 21.6038 9.25868 21.502C9.45443 21.4002 9.62292 21.253 9.75002 21.0726C10.0173 20.6831 10.3757 20.3648 10.7939 20.1452C11.2121 19.9257 11.6776 19.8115 12.15 19.8126C12.6077 19.8132 13.0589 19.9206 13.4678 20.1263C13.8766 20.3321 14.2318 20.6304 14.505 20.9976C14.6867 21.2419 14.9442 21.4192 15.2372 21.502C15.5302 21.5847 15.8423 21.5682 16.125 21.4551C17.2123 21.0175 18.2245 20.4127 19.125 19.6626C19.3512 19.4756 19.5123 19.2216 19.5851 18.9373C19.6578 18.6529 19.6386 18.3528 19.53 18.0801C19.3536 17.6625 19.2767 17.2096 19.3053 16.7572C19.334 16.3047 19.4674 15.8651 19.6951 15.4731C19.9227 15.0811 20.2384 14.7473 20.6171 14.4982C20.9959 14.2491 21.4274 14.0914 21.8775 14.0376C22.1694 13.9972 22.4409 13.865 22.6526 13.66C22.8643 13.4551 23.0052 13.188 23.055 12.8976C23.1755 12.272 23.2407 11.6371 23.25 11.0001C23.2502 10.3282 23.1874 9.6578 23.0625 8.99761C23.0119 8.71359 22.873 8.45274 22.6657 8.25213C22.4583 8.05152 22.1931 7.92135 21.9075 7.88011ZM15.75 11.0001C15.75 11.7418 15.5301 12.4668 15.118 13.0835C14.706 13.7002 14.1203 14.1808 13.4351 14.4647C12.7499 14.7485 11.9959 14.8228 11.2684 14.6781C10.541 14.5334 9.87281 14.1762 9.34837 13.6518C8.82392 13.1273 8.46677 12.4591 8.32207 11.7317C8.17738 11.0043 8.25164 10.2503 8.53547 9.56505C8.8193 8.87983 9.29994 8.29416 9.91663 7.8821C10.5333 7.47005 11.2583 7.25011 12 7.25011C12.9946 7.25011 13.9484 7.6452 14.6517 8.34846C15.3549 9.05172 15.75 10.0056 15.75 11.0001Z" fill="#3B3741"/>
</svg>
