<svg width="24" height="24" viewBox="0 0 24 24" fill="none" xmlns="http://www.w3.org/2000/svg">
<path d="M9.65925 19.3101C11.8044 19.3101 13.8882 18.5944 15.5806 17.2763L21.9653 23.661C22.4423 24.1217 23.2023 24.1085 23.663 23.6315C24.1123 23.1662 24.1123 22.4286 23.663 21.9634L17.2782 15.5786C20.5491 11.3681 19.7874 5.3032 15.5769 2.03229C11.3663 -1.23862 5.30149 -0.476936 2.03058 3.7336C-1.24033 7.94415 -0.478646 14.009 3.73189 17.2799C5.42702 18.5968 7.51269 19.3112 9.65925 19.3101ZM4.52915 4.52716C7.36245 1.6938 11.9561 1.69375 14.7895 4.52706C17.6229 7.36036 17.6229 11.9541 14.7896 14.7874C11.9563 17.6208 7.36261 17.6208 4.52925 14.7875C4.5292 14.7875 4.5292 14.7875 4.52915 14.7874C1.69584 11.9748 1.67915 7.39781 4.49181 4.5645C4.50424 4.55202 4.51667 4.53959 4.52915 4.52716Z" fill="#717579"/>
</svg>
