<svg width="57" height="57" viewBox="0 0 57 57" fill="none" xmlns="http://www.w3.org/2000/svg">
<rect width="57" height="57" rx="14" fill="#FFD482"/>
<path d="M33.8661 45.3198L34.016 45.5H34.2504H42H43.0867L42.3797 44.6747L29.6972 29.8694L42.0311 15.3234L42.7292 14.5H41.6497H34.2504H34.015L33.8651 14.6814L23.6296 27.0631V15V14.5H23.1296H17H16.5V15V45V45.5H17H23.1296H23.6296V45V33.016L33.8661 45.3198Z" fill="#1F1E26" stroke="#1F1E26"/>
<path d="M49.6088 37.1129L49.6063 37.1153L45.8933 40.7348L46.7701 45.847L46.7703 45.8478C46.8761 46.468 46.6217 47.0949 46.1128 47.4658L49.6088 37.1129ZM49.6088 37.1129C50.0549 36.6749 50.2218 36.0196 50.0251 35.4164L49.0744 35.7263L50.0251 35.4164C49.8299 34.8175 49.3121 34.3807 48.6883 34.2897L48.6876 34.2896L43.5559 33.5445L41.261 28.8938C41.261 28.8938 41.261 28.8938 41.261 28.8938C40.9423 28.248 40.2966 28 39.7753 28C39.254 28 38.6083 28.248 38.2897 28.8938L35.9947 33.5445L30.8631 34.2896L30.8624 34.2897C30.2374 34.3808 29.7207 34.8192 29.5258 35.4156C29.329 36.0177 29.4949 36.6758 29.9432 37.1142L29.9445 37.1154L33.6581 40.7342L32.7812 45.8463L32.7811 45.8471M49.6088 37.1129L32.7811 45.8471M32.7811 45.8471C32.6752 46.4673 32.9296 47.0942 33.4385 47.4652M32.7811 45.8471L33.4385 47.4652M33.4385 47.4652C33.9495 47.8383 34.6279 47.8867 35.186 47.5918C35.1865 47.5915 35.187 47.5913 35.1876 47.591L39.7753 45.1795L44.3654 47.5925L33.4382 47.4649C33.4383 47.465 33.4384 47.4651 33.4385 47.4652ZM45.1372 47.7835C45.4781 47.7835 45.8218 47.6782 46.1127 47.4659L44.3666 47.5931C44.609 47.7208 44.8742 47.7835 45.1372 47.7835Z" fill="url(#paint0_linear)" stroke="#FFD482" stroke-width="2"/>
<defs>
<linearGradient id="paint0_linear" x1="39.7753" y1="29" x2="39.7753" y2="46.7835" gradientUnits="userSpaceOnUse">
<stop stop-color="#FF9D43"/>
<stop offset="1" stop-color="#F66F4D"/>
</linearGradient>
</defs>
</svg>
