<svg width="120" height="24" viewBox="0 0 120 24" fill="none" xmlns="http://www.w3.org/2000/svg">
<path d="M6.18003 22.4999C5.99457 22.5005 5.81132 22.4596 5.64368 22.3803C5.47603 22.301 5.32823 22.1852 5.21106 22.0414C5.09389 21.8977 5.01032 21.7295 4.96646 21.5493C4.9226 21.3691 4.91955 21.1814 4.95753 20.9999L5.95503 15.1649L1.71753 11.0474C1.5515 10.8852 1.43411 10.6798 1.37863 10.4544C1.32314 10.229 1.33176 9.99262 1.40352 9.77189C1.47528 9.55115 1.60732 9.35486 1.78473 9.20519C1.96214 9.05552 2.17786 8.95843 2.40753 8.92487L8.25003 8.07737L10.8675 2.76737C10.9685 2.55443 11.1278 2.37452 11.3269 2.24853C11.5261 2.12254 11.7569 2.05566 11.9925 2.05566C12.2282 2.05566 12.459 2.12254 12.6581 2.24853C12.8573 2.37452 13.0166 2.55443 13.1175 2.76737L15.75 8.07737L21.6075 8.93237C21.8372 8.96593 22.0529 9.06302 22.2303 9.21269C22.4077 9.36236 22.5398 9.55864 22.6115 9.77938C22.6833 10.0001 22.6919 10.2365 22.6364 10.4619C22.581 10.6873 22.4636 10.8927 22.2975 11.0549L18.06 15.1874L19.0425 20.9999C19.0817 21.2275 19.0567 21.4616 18.9703 21.6759C18.884 21.8902 18.7398 22.0762 18.5538 22.2132C18.3677 22.3502 18.1473 22.4327 17.917 22.4516C17.6868 22.4704 17.4558 22.4248 17.25 22.3199L12 19.5674L6.75003 22.3199C6.5776 22.4255 6.38189 22.4874 6.18003 22.4999ZM3.14253 10.3349L7.10253 14.1974C7.24804 14.3378 7.35693 14.5116 7.41969 14.7038C7.48244 14.896 7.49716 15.1007 7.46253 15.2999L6.52503 20.7449L11.4225 18.1724C11.6007 18.0791 11.7989 18.0303 12 18.0303C12.2012 18.0303 12.3993 18.0791 12.5775 18.1724L17.475 20.7449L16.5375 15.2924C16.5029 15.0932 16.5176 14.8885 16.5804 14.6963C16.6431 14.5041 16.752 14.3302 16.8975 14.1899L20.8575 10.3274L15.3825 9.53237C15.1826 9.50321 14.9928 9.42584 14.8295 9.30694C14.6661 9.18803 14.5342 9.03116 14.445 8.84987L12 3.89987L9.55503 8.85737C9.46587 9.03866 9.33393 9.19553 9.1706 9.31444C9.00726 9.43334 8.81745 9.51071 8.61753 9.53987L3.14253 10.3349Z" fill="#F66F4D"/>
<path d="M12.4425 3.09725L15.12 8.52725C15.1552 8.59842 15.2069 8.6601 15.2708 8.70709C15.3348 8.75408 15.4091 8.785 15.4875 8.79725L21.4875 9.66725C21.5756 9.6838 21.6575 9.72395 21.7245 9.78341C21.7916 9.84287 21.8412 9.91941 21.8682 10.0049C21.8951 10.0903 21.8983 10.1815 21.8775 10.2686C21.8567 10.3558 21.8127 10.4357 21.75 10.4997L17.415 14.7222C17.358 14.7779 17.3153 14.8466 17.2905 14.9223C17.2657 14.998 17.2595 15.0786 17.2725 15.1572L18.2925 21.1572C18.3121 21.2524 18.3031 21.3512 18.2669 21.4414C18.2307 21.5315 18.1687 21.609 18.0887 21.6641C18.0088 21.7193 17.9144 21.7497 17.8172 21.7516C17.7201 21.7535 17.6246 21.7268 17.5425 21.6747L12.1875 18.8547C12.1169 18.8179 12.0384 18.7987 11.9588 18.7987C11.8791 18.7987 11.8007 18.8179 11.73 18.8547L6.41253 21.6522C6.33049 21.7043 6.23495 21.731 6.13782 21.7291C6.0407 21.7272 5.94627 21.6968 5.86631 21.6416C5.78635 21.5865 5.72439 21.509 5.68816 21.4189C5.65192 21.3287 5.64301 21.2299 5.66253 21.1347L6.68253 15.1347C6.69555 15.0561 6.68939 14.9755 6.66458 14.8998C6.63977 14.8241 6.59705 14.7554 6.54003 14.6997L2.25003 10.4997C2.18521 10.4354 2.13946 10.3544 2.11783 10.2656C2.09621 10.1769 2.09956 10.0839 2.12751 9.99697C2.15545 9.91002 2.20691 9.8325 2.27619 9.77298C2.34547 9.71346 2.42986 9.67427 2.52003 9.65975L8.52003 8.78975C8.59844 8.7775 8.67276 8.74658 8.73672 8.69959C8.80068 8.6526 8.85241 8.59092 8.88753 8.51975L11.565 3.08975C11.6076 3.00994 11.6712 2.94331 11.7489 2.89711C11.8267 2.8509 11.9156 2.82688 12.0061 2.82765C12.0965 2.82843 12.185 2.85396 12.2619 2.90149C12.3389 2.94902 12.4013 3.01672 12.4425 3.09725Z" fill="#F66F4D"/>
<path d="M38.18 22.4999C37.9946 22.5005 37.8113 22.4596 37.6437 22.3803C37.476 22.301 37.3282 22.1852 37.2111 22.0414C37.0939 21.8977 37.0103 21.7295 36.9665 21.5493C36.9226 21.3691 36.9195 21.1814 36.9575 20.9999L37.955 15.1649L33.7175 11.0474C33.5515 10.8852 33.4341 10.6798 33.3786 10.4544C33.3231 10.229 33.3318 9.99262 33.4035 9.77189C33.4753 9.55115 33.6073 9.35486 33.7847 9.20519C33.9621 9.05552 34.1779 8.95843 34.4075 8.92487L40.25 8.07737L42.8675 2.76737C42.9685 2.55443 43.1278 2.37452 43.3269 2.24853C43.5261 2.12254 43.7569 2.05566 43.9925 2.05566C44.2282 2.05566 44.459 2.12254 44.6581 2.24853C44.8573 2.37452 45.0166 2.55443 45.1175 2.76737L47.75 8.07737L53.6075 8.93237C53.8372 8.96593 54.0529 9.06302 54.2303 9.21269C54.4077 9.36236 54.5398 9.55864 54.6115 9.77938C54.6833 10.0001 54.6919 10.2365 54.6364 10.4619C54.581 10.6873 54.4636 10.8927 54.2975 11.0549L50.06 15.1874L51.0425 20.9999C51.0817 21.2275 51.0567 21.4616 50.9703 21.6759C50.884 21.8902 50.7398 22.0762 50.5538 22.2132C50.3677 22.3502 50.1473 22.4327 49.917 22.4516C49.6868 22.4704 49.4558 22.4248 49.25 22.3199L44 19.5674L38.75 22.3199C38.5776 22.4255 38.3819 22.4874 38.18 22.4999ZM35.1425 10.3349L39.1025 14.1974C39.248 14.3378 39.3569 14.5116 39.4197 14.7038C39.4824 14.896 39.4972 15.1007 39.4625 15.2999L38.525 20.7449L43.4225 18.1724C43.6007 18.0791 43.7989 18.0303 44 18.0303C44.2012 18.0303 44.3993 18.0791 44.5775 18.1724L49.475 20.7449L48.5375 15.2924C48.5029 15.0932 48.5176 14.8885 48.5804 14.6963C48.6431 14.5041 48.752 14.3302 48.8975 14.1899L52.8575 10.3274L47.3825 9.53237C47.1826 9.50321 46.9928 9.42584 46.8295 9.30694C46.6661 9.18803 46.5342 9.03116 46.445 8.84987L44 3.89987L41.555 8.85737C41.4659 9.03866 41.3339 9.19553 41.1706 9.31444C41.0073 9.43334 40.8174 9.51071 40.6175 9.53987L35.1425 10.3349Z" fill="#F66F4D"/>
<path d="M44.4425 3.09725L47.12 8.52725C47.1552 8.59842 47.2069 8.6601 47.2708 8.70709C47.3348 8.75408 47.4091 8.785 47.4875 8.79725L53.4875 9.66725C53.5756 9.6838 53.6575 9.72395 53.7245 9.78341C53.7916 9.84287 53.8412 9.91941 53.8682 10.0049C53.8951 10.0903 53.8983 10.1815 53.8775 10.2686C53.8567 10.3558 53.8127 10.4357 53.75 10.4997L49.415 14.7222C49.358 14.7779 49.3153 14.8466 49.2905 14.9223C49.2657 14.998 49.2595 15.0786 49.2725 15.1572L50.2925 21.1572C50.3121 21.2524 50.3031 21.3512 50.2669 21.4414C50.2307 21.5315 50.1687 21.609 50.0887 21.6641C50.0088 21.7193 49.9144 21.7497 49.8172 21.7516C49.7201 21.7535 49.6246 21.7268 49.5425 21.6747L44.1875 18.8547C44.1169 18.8179 44.0384 18.7987 43.9588 18.7987C43.8791 18.7987 43.8007 18.8179 43.73 18.8547L38.4125 21.6522C38.3305 21.7043 38.235 21.731 38.1378 21.7291C38.0407 21.7272 37.9463 21.6968 37.8663 21.6416C37.7864 21.5865 37.7244 21.509 37.6882 21.4189C37.6519 21.3287 37.643 21.2299 37.6625 21.1347L38.6825 15.1347C38.6955 15.0561 38.6894 14.9755 38.6646 14.8998C38.6398 14.8241 38.597 14.7554 38.54 14.6997L34.25 10.4997C34.1852 10.4354 34.1395 10.3544 34.1178 10.2656C34.0962 10.1769 34.0996 10.0839 34.1275 9.99697C34.1555 9.91002 34.2069 9.8325 34.2762 9.77298C34.3455 9.71346 34.4299 9.67427 34.52 9.65975L40.52 8.78975C40.5984 8.7775 40.6728 8.74658 40.7367 8.69959C40.8007 8.6526 40.8524 8.59092 40.8875 8.51975L43.565 3.08975C43.6076 3.00994 43.6712 2.94331 43.7489 2.89711C43.8267 2.8509 43.9156 2.82688 44.0061 2.82765C44.0965 2.82843 44.185 2.85396 44.2619 2.90149C44.3389 2.94902 44.4013 3.01672 44.4425 3.09725Z" fill="#F66F4D"/>
<path d="M70.18 22.4999C69.9946 22.5005 69.8113 22.4596 69.6437 22.3803C69.476 22.301 69.3282 22.1852 69.2111 22.0414C69.0939 21.8977 69.0103 21.7295 68.9665 21.5493C68.9226 21.3691 68.9195 21.1814 68.9575 20.9999L69.955 15.1649L65.7175 11.0474C65.5515 10.8852 65.4341 10.6798 65.3786 10.4544C65.3231 10.229 65.3318 9.99262 65.4035 9.77189C65.4753 9.55115 65.6073 9.35486 65.7847 9.20519C65.9621 9.05552 66.1779 8.95843 66.4075 8.92487L72.25 8.07737L74.8675 2.76737C74.9685 2.55443 75.1278 2.37452 75.3269 2.24853C75.5261 2.12254 75.7569 2.05566 75.9925 2.05566C76.2282 2.05566 76.459 2.12254 76.6581 2.24853C76.8573 2.37452 77.0166 2.55443 77.1175 2.76737L79.75 8.07737L85.6075 8.93237C85.8372 8.96593 86.0529 9.06302 86.2303 9.21269C86.4077 9.36236 86.5398 9.55864 86.6115 9.77938C86.6833 10.0001 86.6919 10.2365 86.6364 10.4619C86.581 10.6873 86.4636 10.8927 86.2975 11.0549L82.06 15.1874L83.0425 20.9999C83.0817 21.2275 83.0567 21.4616 82.9703 21.6759C82.884 21.8902 82.7398 22.0762 82.5538 22.2132C82.3677 22.3502 82.1473 22.4327 81.917 22.4516C81.6868 22.4704 81.4558 22.4248 81.25 22.3199L76 19.5674L70.75 22.3199C70.5776 22.4255 70.3819 22.4874 70.18 22.4999ZM67.1425 10.3349L71.1025 14.1974C71.248 14.3378 71.3569 14.5116 71.4197 14.7038C71.4824 14.896 71.4972 15.1007 71.4625 15.2999L70.525 20.7449L75.4225 18.1724C75.6007 18.0791 75.7989 18.0303 76 18.0303C76.2012 18.0303 76.3993 18.0791 76.5775 18.1724L81.475 20.7449L80.5375 15.2924C80.5029 15.0932 80.5176 14.8885 80.5804 14.6963C80.6431 14.5041 80.752 14.3302 80.8975 14.1899L84.8575 10.3274L79.3825 9.53237C79.1826 9.50321 78.9928 9.42584 78.8295 9.30694C78.6661 9.18803 78.5342 9.03116 78.445 8.84987L76 3.89987L73.555 8.85737C73.4659 9.03866 73.3339 9.19553 73.1706 9.31444C73.0073 9.43334 72.8174 9.51071 72.6175 9.53987L67.1425 10.3349Z" fill="#F66F4D"/>
<path d="M76.4425 3.09725L79.12 8.52725C79.1552 8.59842 79.2069 8.6601 79.2708 8.70709C79.3348 8.75408 79.4091 8.785 79.4875 8.79725L85.4875 9.66725C85.5756 9.6838 85.6575 9.72395 85.7245 9.78341C85.7916 9.84287 85.8412 9.91941 85.8682 10.0049C85.8951 10.0903 85.8983 10.1815 85.8775 10.2686C85.8567 10.3558 85.8127 10.4357 85.75 10.4997L81.415 14.7222C81.358 14.7779 81.3153 14.8466 81.2905 14.9223C81.2657 14.998 81.2595 15.0786 81.2725 15.1572L82.2925 21.1572C82.3121 21.2524 82.3031 21.3512 82.2669 21.4414C82.2307 21.5315 82.1687 21.609 82.0887 21.6641C82.0088 21.7193 81.9144 21.7497 81.8172 21.7516C81.7201 21.7535 81.6246 21.7268 81.5425 21.6747L76.1875 18.8547C76.1169 18.8179 76.0384 18.7987 75.9588 18.7987C75.8791 18.7987 75.8007 18.8179 75.73 18.8547L70.4125 21.6522C70.3305 21.7043 70.235 21.731 70.1378 21.7291C70.0407 21.7272 69.9463 21.6968 69.8663 21.6416C69.7864 21.5865 69.7244 21.509 69.6882 21.4189C69.6519 21.3287 69.643 21.2299 69.6625 21.1347L70.6825 15.1347C70.6955 15.0561 70.6894 14.9755 70.6646 14.8998C70.6398 14.8241 70.597 14.7554 70.54 14.6997L66.25 10.4997C66.1852 10.4354 66.1395 10.3544 66.1178 10.2656C66.0962 10.1769 66.0996 10.0839 66.1275 9.99697C66.1555 9.91002 66.2069 9.8325 66.2762 9.77298C66.3455 9.71346 66.4299 9.67427 66.52 9.65975L72.52 8.78975C72.5984 8.7775 72.6728 8.74658 72.7367 8.69959C72.8007 8.6526 72.8524 8.59092 72.8875 8.51975L75.565 3.08975C75.6076 3.00994 75.6712 2.94331 75.7489 2.89711C75.8267 2.8509 75.9156 2.82688 76.0061 2.82765C76.0965 2.82843 76.185 2.85396 76.2619 2.90149C76.3389 2.94902 76.4013 3.01672 76.4425 3.09725Z" fill="#F66F4D"/>
<path d="M102.18 22.4999C101.995 22.5005 101.811 22.4596 101.644 22.3803C101.476 22.301 101.328 22.1852 101.211 22.0414C101.094 21.8977 101.01 21.7295 100.966 21.5493C100.923 21.3691 100.92 21.1814 100.958 20.9999L101.955 15.1649L97.7175 11.0474C97.5515 10.8852 97.4341 10.6798 97.3786 10.4544C97.3231 10.229 97.3318 9.99262 97.4035 9.77189C97.4753 9.55115 97.6073 9.35486 97.7847 9.20519C97.9621 9.05552 98.1779 8.95843 98.4075 8.92487L104.25 8.07737L106.868 2.76737C106.968 2.55443 107.128 2.37452 107.327 2.24853C107.526 2.12254 107.757 2.05566 107.993 2.05566C108.228 2.05566 108.459 2.12254 108.658 2.24853C108.857 2.37452 109.017 2.55443 109.118 2.76737L111.75 8.07737L117.608 8.93237C117.837 8.96593 118.053 9.06302 118.23 9.21269C118.408 9.36236 118.54 9.55864 118.612 9.77938C118.683 10.0001 118.692 10.2365 118.636 10.4619C118.581 10.6873 118.464 10.8927 118.298 11.0549L114.06 15.1874L115.043 20.9999C115.082 21.2275 115.057 21.4616 114.97 21.6759C114.884 21.8902 114.74 22.0762 114.554 22.2132C114.368 22.3502 114.147 22.4327 113.917 22.4516C113.687 22.4704 113.456 22.4248 113.25 22.3199L108 19.5674L102.75 22.3199C102.578 22.4255 102.382 22.4874 102.18 22.4999ZM99.1425 10.3349L103.103 14.1974C103.248 14.3378 103.357 14.5116 103.42 14.7038C103.482 14.896 103.497 15.1007 103.463 15.2999L102.525 20.7449L107.423 18.1724C107.601 18.0791 107.799 18.0303 108 18.0303C108.201 18.0303 108.399 18.0791 108.578 18.1724L113.475 20.7449L112.538 15.2924C112.503 15.0932 112.518 14.8885 112.58 14.6963C112.643 14.5041 112.752 14.3302 112.898 14.1899L116.858 10.3274L111.383 9.53237C111.183 9.50321 110.993 9.42584 110.829 9.30694C110.666 9.18803 110.534 9.03116 110.445 8.84987L108 3.89987L105.555 8.85737C105.466 9.03866 105.334 9.19553 105.171 9.31444C105.007 9.43334 104.817 9.51071 104.618 9.53987L99.1425 10.3349Z" fill="#F66F4D"/>
<path d="M108.443 3.09725L111.12 8.52725C111.155 8.59842 111.207 8.6601 111.271 8.70709C111.335 8.75408 111.409 8.785 111.488 8.79725L117.488 9.66725C117.576 9.6838 117.658 9.72395 117.725 9.78341C117.792 9.84287 117.841 9.91941 117.868 10.0049C117.895 10.0903 117.898 10.1815 117.878 10.2686C117.857 10.3558 117.813 10.4357 117.75 10.4997L113.415 14.7222C113.358 14.7779 113.315 14.8466 113.29 14.9223C113.266 14.998 113.26 15.0786 113.273 15.1572L114.293 21.1572C114.312 21.2524 114.303 21.3512 114.267 21.4414C114.231 21.5315 114.169 21.609 114.089 21.6641C114.009 21.7193 113.914 21.7497 113.817 21.7516C113.72 21.7535 113.625 21.7268 113.543 21.6747L108.188 18.8547C108.117 18.8179 108.038 18.7987 107.959 18.7987C107.879 18.7987 107.801 18.8179 107.73 18.8547L102.413 21.6522C102.33 21.7043 102.235 21.731 102.138 21.7291C102.041 21.7272 101.946 21.6968 101.866 21.6416C101.786 21.5865 101.724 21.509 101.688 21.4189C101.652 21.3287 101.643 21.2299 101.663 21.1347L102.683 15.1347C102.696 15.0561 102.689 14.9755 102.665 14.8998C102.64 14.8241 102.597 14.7554 102.54 14.6997L98.25 10.4997C98.1852 10.4354 98.1395 10.3544 98.1178 10.2656C98.0962 10.1769 98.0996 10.0839 98.1275 9.99697C98.1555 9.91002 98.2069 9.8325 98.2762 9.77298C98.3455 9.71346 98.4299 9.67427 98.52 9.65975L104.52 8.78975C104.598 8.7775 104.673 8.74658 104.737 8.69959C104.801 8.6526 104.852 8.59092 104.888 8.51975L107.565 3.08975C107.608 3.00994 107.671 2.94331 107.749 2.89711C107.827 2.8509 107.916 2.82688 108.006 2.82765C108.096 2.82843 108.185 2.85396 108.262 2.90149C108.339 2.94902 108.401 3.01672 108.443 3.09725Z" fill="#F66F4D"/>
</svg>
